<?xml version="1.0" encoding="UTF-8" standalone="no"?>
<!-- Created with Inkscape (http://www.inkscape.org/) -->

<svg
   xmlns:dc="http://purl.org/dc/elements/1.1/"
   xmlns:cc="http://creativecommons.org/ns#"
   xmlns:rdf="http://www.w3.org/1999/02/22-rdf-syntax-ns#"
   xmlns:svg="http://www.w3.org/2000/svg"
   xmlns="http://www.w3.org/2000/svg"
   xmlns:sodipodi="http://sodipodi.sourceforge.net/DTD/sodipodi-0.dtd"
   xmlns:inkscape="http://www.inkscape.org/namespaces/inkscape"
   width="1052.3622"
   height="744.09448"
   id="svg2"
   version="1.1"
   inkscape:version="0.48.4 r9939"
   sodipodi:docname="ehbo.pdf">
  <defs
     id="defs4">
    <inkscape:perspective
       sodipodi:type="inkscape:persp3d"
       inkscape:vp_x="0 : 526.18109 : 1"
       inkscape:vp_y="0 : 1000 : 0"
       inkscape:vp_z="744.09448 : 526.18109 : 1"
       inkscape:persp3d-origin="372.04724 : 350.78739 : 1"
       id="perspective10" />
    <inkscape:perspective
       id="perspective2832"
       inkscape:persp3d-origin="0.5 : 0.33333333 : 1"
       inkscape:vp_z="1 : 0.5 : 1"
       inkscape:vp_y="0 : 1000 : 0"
       inkscape:vp_x="0 : 0.5 : 1"
       sodipodi:type="inkscape:persp3d" />
    <inkscape:perspective
       id="perspective2863"
       inkscape:persp3d-origin="0.5 : 0.33333333 : 1"
       inkscape:vp_z="1 : 0.5 : 1"
       inkscape:vp_y="0 : 1000 : 0"
       inkscape:vp_x="0 : 0.5 : 1"
       sodipodi:type="inkscape:persp3d" />
    <inkscape:perspective
       id="perspective2894"
       inkscape:persp3d-origin="0.5 : 0.33333333 : 1"
       inkscape:vp_z="1 : 0.5 : 1"
       inkscape:vp_y="0 : 1000 : 0"
       inkscape:vp_x="0 : 0.5 : 1"
       sodipodi:type="inkscape:persp3d" />
    <inkscape:perspective
       id="perspective2925"
       inkscape:persp3d-origin="0.5 : 0.33333333 : 1"
       inkscape:vp_z="1 : 0.5 : 1"
       inkscape:vp_y="0 : 1000 : 0"
       inkscape:vp_x="0 : 0.5 : 1"
       sodipodi:type="inkscape:persp3d" />
    <inkscape:perspective
       id="perspective2972"
       inkscape:persp3d-origin="0.5 : 0.33333333 : 1"
       inkscape:vp_z="1 : 0.5 : 1"
       inkscape:vp_y="0 : 1000 : 0"
       inkscape:vp_x="0 : 0.5 : 1"
       sodipodi:type="inkscape:persp3d" />
    <inkscape:perspective
       id="perspective2972-7"
       inkscape:persp3d-origin="0.5 : 0.33333333 : 1"
       inkscape:vp_z="1 : 0.5 : 1"
       inkscape:vp_y="0 : 1000 : 0"
       inkscape:vp_x="0 : 0.5 : 1"
       sodipodi:type="inkscape:persp3d" />
    <inkscape:perspective
       id="perspective3817"
       inkscape:persp3d-origin="0.5 : 0.33333333 : 1"
       inkscape:vp_z="1 : 0.5 : 1"
       inkscape:vp_y="0 : 1000 : 0"
       inkscape:vp_x="0 : 0.5 : 1"
       sodipodi:type="inkscape:persp3d" />
    <inkscape:perspective
       id="perspective90"
       inkscape:persp3d-origin="372.04724 : 350.78739 : 1"
       inkscape:vp_z="744.09448 : 526.18109 : 1"
       inkscape:vp_y="0 : 1000 : 0"
       inkscape:vp_x="0 : 526.18109 : 1"
       sodipodi:type="inkscape:persp3d" />
  </defs>
  <sodipodi:namedview
     id="base"
     pagecolor="#ffffff"
     bordercolor="#666666"
     borderopacity="1.0"
     inkscape:pageopacity="0"
     inkscape:pageshadow="2"
     inkscape:zoom="1.2108677"
     inkscape:cx="526.18109"
     inkscape:cy="372.04724"
     inkscape:document-units="px"
     inkscape:current-layer="layer1"
     showgrid="false"
     units="mm"
     inkscape:window-width="1920"
     inkscape:window-height="1025"
     inkscape:window-x="0"
     inkscape:window-y="27"
     inkscape:window-maximized="1"
     borderlayer="true" />
  <metadata
     id="metadata7">
    <rdf:RDF>
      <cc:Work
         rdf:about="">
        <dc:format>image/svg+xml</dc:format>
        <dc:type
           rdf:resource="http://purl.org/dc/dcmitype/StillImage" />
        <dc:title></dc:title>
      </cc:Work>
    </rdf:RDF>
  </metadata>
  <g
     inkscape:label="Layer 1"
     inkscape:groupmode="layer"
     id="layer1"
     transform="translate(0,-308.26767)">
    <g
       id="g5874"
       transform="matrix(0.25421796,0,0,0.25421796,743.45446,765.48554)">
      <g
         id="g3295"
         transform="matrix(1.7623801,0,0,1.7623801,361.21221,362.4546)">
        <path
           id="path4"
           d="m 183.295,6.4797963 c 9,-1.8 18.36,-2.7 27.72,-2.7 76.32,0 138.06,61.7399997 138.06,137.8800037 0,40.14 -17.1,76.14 -44.28,101.34"
           style="fill:none;stroke:#800080;stroke-width:3.05999994;stroke-linecap:round;stroke-linejoin:round;stroke-opacity:1" />
        <path
           id="path6"
           d="m 97.615,220.1398 c -15.48,-22.14 -24.48,-49.32 -24.48,-78.48 0,-39.42 16.56,-74.880004 43.02,-100.080004"
           style="fill:none;stroke:#800080;stroke-width:3.05999994;stroke-linecap:round;stroke-linejoin:round;stroke-opacity:1" />
        <path
           id="path8"
           transform="matrix(0.5674145,0,0,0.5674145,0,-159.16778)"
           d="m 318.0625,437.15625 c -1.70015,0.0396 -3.5919,0.69511 -5.8125,2.28125 -9.19963,6.02735 -5.0769,-0.95435 -14.59375,8.5625 -9.51684,9.51685 -10.16386,10.48027 -11.75,18.09375 -1.26892,7.6135 -4.42228,13.62418 -1.25,19.96875 3.17228,6.02733 12.36945,23.80304 19.03125,24.4375 10e-6,0 6.66016,0.007 12.6875,-2.53125 6.34457,-2.53784 13.6431,-2.5257 18.71875,-9.1875 4.75844,-6.34456 4.43483,-7.9338 13,-12.375 8.56517,-4.44121 5.39576,-14.60054 1.90625,-22.53125 -3.48952,-7.61349 -9.50679,-15.85897 -17.4375,-19.03125 -5.94803,-2.37921 -9.39956,-7.80646 -14.5,-7.6875 z m -0.75,18.15625 c 0.31723,0 0.34374,3.80776 0.34375,4.125 0,2.85506 0.2907,6.01995 -0.34375,8.875 -0.63446,1.90337 -1.57956,3.47636 -2.53125,5.0625 -0.31723,0.31723 -0.62499,-2.52653 -0.625,-2.84375 0,-1.26891 -0.32195,-3.79833 0.3125,-4.75 0.63446,-1.26891 1.58429,-2.54358 2.21875,-3.8125 0,-0.27757 0.25178,-1.29658 0.3125,-0.90625 0,-0.4745 0,-1.35458 0,-1.625 0,-0.31723 -0.32196,-4.12499 0.3125,-4.125 z m 6.40625,10.59375 c 0.0781,0.0651 0.24327,0.59386 0.28125,0.5625 0,0.91298 -10e-6,1.54056 0,2.46875 0,1.58614 0.29069,3.19511 -0.34375,4.78125 -0.95169,3.80674 -3.17147,6.34191 -6.34375,8.5625 0,0 -0.31251,-3.80777 -0.3125,-4.125 0,-0.63446 -0.32196,-3.49527 0.3125,-3.8125 3.17228,-2.2206 5.39205,-4.44324 6.34375,-8.25 0,-0.15861 0.0328,-0.21228 0.0625,-0.1875 z m 3.53125,8.65625 c 0.0314,-0.0154 0.0715,-0.007 0.0937,0 0.13383,0.0446 0.125,0.40625 0.125,0.40625 0,0.95169 0.31249,1.57957 0.3125,2.53125 0,0.95169 -1e-5,1.91858 0,3.1875 -0.31723,0.31723 0.005,1.27653 -0.3125,1.59375 -1.58614,1.90337 -2.53414,4.10137 -4.4375,5.6875 0,0 -0.31251,-1.25001 -0.3125,-1.25 0,-0.95169 -1e-5,-1.57956 0,-2.53125 0,-0.95169 -1e-5,-1.92333 0,-2.875 0,-0.31723 -0.005,-0.93278 0.3125,-1.25 1.90337,-1.58614 2.85608,-3.50288 4.125,-5.40625 0.0396,-0.0396 0.0624,-0.0784 0.0937,-0.0937 z"
           style="fill:#800080;fill-rule:nonzero;stroke:none" />
        <path
           id="path10"
           d="m 169.435,171.1798 c 0,0 -28.62,44.1 -28.98,48.24 -0.36,4.32 -9,44.28 0,48.6 9,4.5 12.6,10.44 26.28,7.74 13.68,-2.88 29.16,-9.54 34.02,-14.4 5.04,-4.86 5.76,-9.18 6.3,-6.12 0.36,3.24 -5.4,16.2 -0.36,18.36 0,0 24.48,-5.04 30.24,-0.36 7.2,5.58 21.24,7.38 29.52,3.42 8.46,-3.96 12.06,-8.1 14.4,-14.94 2.34,-6.84 1.8,-7.2 4.5,-11.34 1.62,-2.7 7.74,-14.04 1.62,-21.78 -15.12,-19.08 -16.2,-20.34 -24.84,-21.42 -8.46,-1.26 -12.96,0.36 -12.6,-3.42 0.36,-3.78 -0.72,-19.62 -2.88,-21.6 -2.16,-1.98 -9.9,-4.32 -17.64,-5.58 -7.56,-1.26 -16.92,-4.68 -19.8,-5.22 -2.88,-0.54 -8.46,7.2 -16.2,8.64 -7.74,1.62 -8.82,-2.88 -12.06,-3.42 -3.42,-0.54 -10.08,-1.8 -11.7,-6.3"
           style="fill:#800080;fill-rule:nonzero;stroke:none" />
        <path
           id="path12"
           d="m 253.855,183.0598 c 0,0 9.18,2.52 13.14,1.08 4.14,-1.62 6.84,-2.34 8.46,-3.96 1.62,-1.62 1.8,-3.6 2.88,-5.58 1.26,-1.98 2.7,-7.38 3.42,-9.9 0.54,-2.34 2.16,-4.5 0.18,-5.04 -1.98,-0.72 -9.9,-0.54 -8.28,-2.7 1.62,-1.98 3.24,-7.02 3.24,-7.02 0,0 -5.04,0.36 -8.46,0.9 -4.86,0.9 -4.86,0.9 -6.48,3.06 -1.44,2.16 -3.06,-1.62 -1.44,2.16 2.16,5.04 3.6,4.14 7.56,7.74 3.24,3.06 4.68,5.58 -0.72,10.26 -4.5,4.14 -5.94,9.9 -13.5,9 z"
           style="fill:#800080;fill-rule:nonzero;stroke:none" />
        <path
           id="path14"
           d="m 266.995,136.4398 c 0,0 -0.18,-14.94 3.42,-16.02 3.78,-0.9 0.9,9.36 2.88,10.8 2.16,1.62 -4.68,2.52 -6.3,5.22 z"
           style="fill:#800080;fill-rule:nonzero;stroke:none" />
        <path
           id="path16"
           d="m 199.495,97.379796 c 0,0 1.8,-1.08 2.52,-3.06 0.54,-1.98 -0.18,-3.78 2.7,-3.24 2.88,0.54 23.22,9.000004 27.54,12.600004 4.14,3.6 6.12,4.32 7.2,5.58 1.26,1.26 12.06,-4.86 17.1,-5.58 5.04,-0.72 6.66,0.9 7.92,-0.18 1.26,-1.08 5.76,0.72 -1.98,2.16 -7.74,1.62 -18,5.76 -20.52,8.46 -2.34,2.52 -6.84,1.26 -6.84,1.26 l 2.34,-3.96 c 0,0 -22.86,-17.460004 -37.98,-14.040004 z"
           style="fill:#800080;fill-rule:nonzero;stroke:none" />
        <path
           id="path18"
           d="m 182.395,132.1198 c 0,0 5.58,0.54 7.56,-3.24 0,0 1.98,6.48 -7.56,3.24 z"
           style="fill:#800080;fill-rule:nonzero;stroke:none" />
        <path
           id="path20"
           d="m 194.815,126.5398 5.04,-7.02 c 0,0 2.16,5.04 -5.04,7.02 z"
           style="fill:#800080;fill-rule:nonzero;stroke:none" />
        <path
           id="path22"
           d="m 285.535,182.5198 c 0,0 3.96,-0.18 5.94,-0.72 1.98,-0.72 0.72,2.34 -1.62,3.78 -2.34,1.26 -1.26,0.54 -4.32,-3.06 z"
           style="fill:none;stroke:#800080;stroke-width:1.98000002;stroke-linecap:butt;stroke-linejoin:miter;stroke-opacity:1" />
        <path
           id="path24"
           d="m 123.355,219.0598 c 0.18,0.18 0.18,0.54 0.36,0.72 -0.18,-1.08 -0.18,-2.16 -0.18,-3.24 -0.18,2.34 -7.2,6.12 -9.18,7.56 -1.98,1.26 -2.7,3.24 -4.14,4.86 -0.9,1.08 -2.34,1.8 -3.6,2.52 -1.26,0.72 -2.34,3.06 -3.24,4.14 -0.72,1.08 0.54,3.78 0,4.5 1.44,-1.8 2.34,-3.6 4.32,-4.86 1.62,-0.9 2.88,-1.98 3.96,-3.6 1.98,-2.88 4.5,-4.32 7.2,-6.3 3.06,-2.16 7.38,-6.48 4.5,-10.62 0.36,0.36 -0.72,3.24 0,4.32 l 0,0 z"
           style="fill:#800080;fill-rule:nonzero;stroke:none" />
        <path
           id="path26"
           d="m 131.995,219.0598 c -3.42,1.62 -3.6,6.12 -5.22,9.18 -1.26,2.34 -3.96,2.34 -6.48,2.88 -2.52,0.54 -3.42,2.16 -5.4,3.6 -0.9,0.72 0.54,4.14 0,4.5 1.98,-1.44 2.88,-2.88 5.4,-3.6 2.34,-0.72 4.5,-0.36 6.12,-2.52 2.34,-2.88 1.8,-7.74 5.58,-9.54 0.9,-0.36 -0.18,-4.32 0,-4.5 l 0,0 z"
           style="fill:#800080;fill-rule:nonzero;stroke:none" />
        <path
           id="path28"
           d="m 284.635,193.3198 5.94,2.52 c 0,0 -2.34,0.36 -3.42,2.34 -1.08,1.98 -1.62,1.62 -2.7,0.36"
           style="fill:none;stroke:#800080;stroke-width:1.98000002;stroke-linecap:butt;stroke-linejoin:miter;stroke-opacity:1" />
        <path
           id="path30"
           d="m 301.915,190.4398 -4.32,2.52 c 0,0 1.98,3.6 5.4,1.26"
           style="fill:none;stroke:#800080;stroke-width:1.98000002;stroke-linecap:butt;stroke-linejoin:miter;stroke-opacity:1" />
        <path
           id="path32"
           d="m 193.735,133.7398 c 0,0 2.88,0.9 3.96,-2.7"
           style="fill:none;stroke:#800080;stroke-width:1.08000004;stroke-linecap:butt;stroke-linejoin:miter;stroke-opacity:1" />
        <path
           id="path34"
           d="m 130.195,10.979796 c 3.6,3.96 8.1,5.58 10.44,10.62 0.9,1.98 1.62,3.06 3.24,4.5 1.08,1.08 2.16,2.16 2.7,3.6 0.54,1.08 0.54,3.42 1.08,0.54 -0.18,1.08 -0.18,2.16 -0.18,3.06 0,0.18 0.18,1.8 0.36,0.9 0.54,-3.42 0.18,-8.1 -2.16,-10.8 -1.44,-1.62 -3.24,-2.88 -4.32,-4.86 -0.9,-1.62 -1.62,-3.42 -2.7,-5.22 -1.98,-2.88 -6.12,-4.1399997 -8.46,-6.8399997 0.72,0.72 -0.72,3.5999997 0,4.4999997 l 0,0 z"
           style="fill:#800080;fill-rule:nonzero;stroke:none" />
        <path
           id="path36"
           d="m 131.635,4.4997963 c 2.88,1.26 5.76,1.44 8.1,3.78 2.34,1.9799997 4.68,3.4199997 7.56,4.6799997 3.06,1.44 5.4,0.36 8.46,0.18 1.98,-0.18 4.86,-0.36 5.76,1.8 0,-1.26 0,-2.7 0,-4.14 -0.36,1.8 -1.62,2.88 -1.8,4.68 -0.36,1.26 -0.36,2.7 -0.36,3.96 0,2.34 -0.18,5.94 2.16,7.2 -0.18,-0.18 0.9,-3.96 0,-4.5 -4.5,-2.52 5.04,-12.06 -2.88,-13.4999997 -1.62,-0.18 -3.6,0 -5.4,0.36 -2.88,0.54 -4.86,0 -7.56,-1.26 -2.16,-1.08 -4.14,-2.52 -5.94,-3.96 -2.34,-2.16 -5.22,-2.52 -8.1,-3.77999999389 0.36,0.18000000389 -0.72,4.13999999389 0,4.49999999389 l 0,0 z"
           style="fill:#800080;fill-rule:nonzero;stroke:none" />
        <path
           id="path38"
           d="m 127.315,0.89979631 c -0.9,0.35999999 -2.16,0.89999999 -2.34,1.97999999 -0.36,0.9 -0.18,1.98 -0.18,2.88 0,0.72 0,1.44 0.18,1.98 0.54,1.08 2.34,0.18 3.06,0 1.62,-0.18 2.34,1.62 3.42,2.3399997 0,0 0.18,-1.9799997 0.18,-2.1599997 0,-0.36 0.18,-1.98 -0.18,-2.34 -1.08,-0.9 -1.62,-2.34 -3.42,-2.34 -0.72,0.18 -2.7,1.08 -3.06,0 0.18,0.36 0.18,0.54 0.18,0.9 0,0 0,0 0,0 0,0.9 0,1.8 0,2.7 -0.18,0.36 -0.18,0.36 0,0.18 0.18,-0.36 0.36,-0.36 0.54,-0.54 0.36,-0.54 1.08,-0.9 1.62,-1.08 0.36,-0.18 0.18,-1.98 0.18,-2.34 0,0 0,-2.15999999 -0.18,-2.15999999 l 0,0 z"
           style="fill:#800080;fill-rule:nonzero;stroke:none" />
        <path
           id="path40"
           d="m 149.815,20.879796 c 1.44,-0.18 2.34,-1.8 3.78,-1.98 0.72,-0.18 1.08,0.54 1.26,1.08 0.18,0.18 0.36,0.54 0.54,0.9 0.54,1.8 -0.54,1.62 0.36,-1.98 -0.36,0.9 -0.18,2.16 -0.18,3.06 0,0.18 0.18,1.62 0.36,0.9 0.54,-2.52 0.18,-5.58 -1.08,-7.74 -1.44,-2.16 -3.42,0.9 -5.04,1.26 -0.54,0.18 0,4.5 0,4.5 l 0,0 z"
           style="fill:#800080;fill-rule:nonzero;stroke:none" />
        <path
           id="path42"
           d="m 131.635,45.359796 c 7.74,1.8 12.6,-1.44 18,-6.84 1.8,-1.98 4.14,-3.6 6.66,-4.14 3.06,-0.9 6.12,-1.98 9.18,-0.9 0,-0.18 0.72,-4.32 0,-4.5 -3.24,-1.08 -5.04,0.54 -8.1,0.54 -2.88,0 -5.76,2.52 -7.74,4.5 -5.76,5.22 -10.08,8.64 -18,6.84 0,0 -0.72,4.32 0,4.5 l 0,0 z"
           style="fill:#800080;fill-rule:nonzero;stroke:none" />
        <path
           id="path44"
           d="m 140.095,57.059796 c 4.68,7.38 9.18,15.12 12.96,23.04 1.62,3.24 4.86,5.22 7.74,7.02 3.6,2.34 7.2,4.86 11.34,5.4 0.18,0 0.54,-4.5 0,-4.5 -7.02,-1.08 -16.56,-7.2 -19.62,-13.5 -3.6,-7.56 -7.92,-14.76 -12.24,-21.96 0.18,0.54 -0.72,3.42 -0.18,4.5 l 0,0 z"
           style="fill:#800080;fill-rule:nonzero;stroke:none" />
        <path
           id="path46"
           d="m 166.555,35.819796 c 3.78,4.86 7.92,9.36 12.42,13.5 4.68,4.32 9.72,6.84 15.3,10.08 -0.36,-0.36 0.9,-4.14 0,-4.5 -5.58,-3.24 -10.62,-5.76 -15.3,-10.08 -4.5,-4.14 -8.64,-8.64 -12.42,-13.5 0.54,0.72 -0.9,3.6 0,4.5 l 0,0 z"
           style="fill:#800080;fill-rule:nonzero;stroke:none" />
        <path
           id="path48"
           d="m 155.035,58.679796 c 0.9,0.18 1.62,0 2.34,-0.18 1.26,-0.36 2.16,-0.36 3.42,-0.18 2.16,0.54 3.96,1.44 5.76,2.7 0,0.18 0.36,-1.98 0.36,-2.16 0,-0.36 0,-1.98 -0.36,-2.34 -1.8,-1.26 -3.6,-2.16 -5.76,-2.7 -0.9,-0.18 -1.8,-0.18 -2.7,0 -1.08,0.18 -1.98,0.72 -3.06,0.36 0,0 -0.72,4.32 0,4.5 l 0,0 z"
           style="fill:#800080;fill-rule:nonzero;stroke:none" />
        <path
           id="path50"
           d="m 171.775,62.099796 c 3.78,0.18 7.74,0.54 11.52,1.44 4.32,1.08 7.56,4.5 11.16,7.02 -0.54,-0.36 0.9,-3.96 0,-4.5 -3.24,-2.16 -6.12,-5.04 -9.72,-6.48 -3.96,-1.8 -8.82,-1.8 -12.96,-1.98 -0.36,0 -0.54,4.5 0,4.5 l 0,0 z"
           style="fill:#800080;fill-rule:nonzero;stroke:none" />
        <path
           id="path52"
           d="m 178.615,57.059796 c 3.24,1.08 6.48,1.98 9.54,3.24 3.42,1.44 6.48,3.96 9.36,6.12 -0.54,-0.18 0.9,-3.78 0,-4.5 -2.52,-1.8 -5.22,-4.14 -8.1,-5.58 -3.42,-1.62 -7.2,-2.52 -10.8,-3.78 0.18,0.18 -0.72,4.32 0,4.5 l 0,0 z"
           style="fill:#800080;fill-rule:nonzero;stroke:none" />
        <path
           id="path54"
           d="m 173.215,78.479796 c 2.34,-2.34 6.3,-2.88 9.36,-2.34 2.7,0.54 5.04,2.34 7.74,2.7 2.7,0.54 5.58,0.18 8.1,-0.18 0.54,0 0.18,-4.5 0,-4.5 -5.22,0.72 -9.36,0.18 -14.4,-1.98 -3.24,-1.44 -8.1,-0.72 -10.8,1.8 -0.9,0.72 0.54,3.96 0,4.5 l 0,0 z"
           style="fill:#800080;fill-rule:nonzero;stroke:none" />
        <path
           id="path56"
           d="m 193.375,84.239796 c 1.98,0.54 3.78,-0.18 5.76,-0.36 2.16,-0.36 4.14,1.26 6.3,1.44 0.18,0 0.36,-4.5 0,-4.5 -1.98,-0.18 -3.6,-1.26 -5.58,-1.62 -2.16,-0.18 -4.32,1.26 -6.48,0.54 0,0 -0.72,4.5 0,4.5 l 0,0 z"
           style="fill:#800080;fill-rule:nonzero;stroke:none" />
        <path
           id="path58"
           d="m 197.155,48.959796 c 1.8,-5.4 3.42,-11.16 9.72,-12.42 2.88,-0.72 6.12,0.36 8.82,0.9 3.78,0.54 6.84,-0.18 10.26,-1.98 2.34,-1.08 4.5,-2.7 7.2,-2.34 2.34,0.36 4.5,1.98 6.12,3.42 4.68,4.14 7.38,12.6 8.64,18.54 0.18,0.72 0.36,-0.72 0.36,-0.9 0,-0.9 0,-1.98 -0.18,-3.06 -1.26,-5.94 -3.6,-11.7 -7.02,-16.92 -1.44,-2.16 -3.24,-3.6 -5.58,-4.86 -3.06,-1.44 -5.4,-0.54 -8.28,1.08 -3.24,1.62 -6.12,2.88 -9.9,2.7 -3.6,-0.18 -6.84,-1.44 -10.44,-1.08 -6.3,0.36 -8.1,7.56 -9.9,12.6 -0.36,1.08 0.36,3.6 0.18,4.32 l 0,0 z"
           style="fill:#800080;fill-rule:nonzero;stroke:none" />
        <path
           id="path60"
           d="m 215.155,47.519796 c 4.5,-1.44 7.74,1.62 10.98,4.5 3.24,3.06 8.64,2.16 12.78,2.7 4.14,0.36 7.92,2.52 11.52,4.5 2.88,1.44 6.84,2.16 7.38,5.76 0.18,0.9 0.36,-0.72 0.36,-0.9 0.18,-0.9 0.18,-1.98 0,-3.06 -0.36,-2.34 -0.72,-3.06 -2.88,-3.78 -4.68,-1.62 -8.64,-4.86 -13.32,-6.3 -4.32,-1.44 -9,-0.72 -13.32,-1.98 -5.22,-1.62 -7.38,-7.92 -13.5,-5.94 -0.72,0.18 0.18,4.5 0,4.5 l 0,0 z"
           style="fill:#800080;fill-rule:nonzero;stroke:none" />
        <path
           id="path62"
           d="m 221.995,43.919796 c 6.84,-3.6 14.22,0.18 17.46,6.84 -0.36,-0.54 0.72,-3.24 0,-4.32 -3.06,-6.66 -10.44,-10.62 -17.46,-7.02 -0.9,0.54 0.36,4.32 0,4.5 l 0,0 z"
           style="fill:#800080;fill-rule:nonzero;stroke:none" />
        <path
           id="path64"
           d="m 196.795,47.339796 c -2.34,6.3 -1.08,12.78 -0.36,19.26 0.54,4.14 1.44,7.02 4.14,10.26 3.6,4.14 8.28,7.38 12.96,10.26 2.16,1.44 4.5,2.34 6.84,3.42 1.98,1.08 3.78,3.06 5.76,4.32 4.32,2.88 9.18,3.78 14.22,2.7 5.04,-1.08 8.1,-4.5 9.36,-9 1.62,-5.22 3.42,-9.54 7.02,-13.86 0.72,-0.9 -0.72,-3.78 0,-4.5 -1.8,2.16 -3.42,4.5 -4.86,6.84 -2.34,3.96 -1.8,8.64 -4.86,12.42 -5.22,6.3 -14.94,4.32 -20.88,0.9 -3.06,-1.8 -5.22,-4.14 -8.46,-5.58 -3.96,-1.8 -7.56,-4.14 -10.98,-6.84 -3.42,-2.52 -6.84,-5.76 -8.82,-9.54 -1.98,-3.78 -2.16,-13.32 -1.08,-16.74 0.54,-1.26 -0.36,-3.78 0,-4.32 l 0,0 z"
           style="fill:#800080;fill-rule:nonzero;stroke:none" />
        <path
           id="path66"
           d="m 245.755,45.359796 c 1.44,-2.7 1.44,-6.84 1.8,-9.72 0,-0.9 0.18,-1.8 0.18,-2.88 0,-0.36 0,-0.72 0,-1.08 0,-1.26 0.54,-2.52 -0.18,0 0.36,-0.9 1.44,-1.26 2.16,-1.26 0.54,0 1.08,0 1.44,0.18 1.98,0.54 0.9,2.7 1.44,-0.72 -0.18,1.08 0,2.16 0,3.06 0,0.18 0.18,1.8 0.36,0.9 0.36,-1.62 0.54,-4.14 0,-5.76 -0.72,-1.8 -4.14,-3.6 -5.22,-1.08 -0.9,1.8 -0.36,3.96 -0.54,5.94 -0.54,2.52 -0.36,5.76 -1.62,8.1 -0.54,1.08 0.54,3.78 0.18,4.32 l 0,0 z"
           style="fill:#800080;fill-rule:nonzero;stroke:none" />
        <path
           id="path68"
           d="m 251.695,30.959796 c 1.26,-0.18 2.34,-0.54 3.42,0.18 0.54,0.54 1.62,1.44 1.62,2.34 0,-0.9 0,-1.62 0,-2.52 0,0 0,0.18 0,0.18 0,-0.54 0,-1.08 0.18,-1.62 0,0.18 -0.18,0.18 -0.18,0.36 -0.36,0.54 -0.18,1.98 -0.18,2.7 0,0.18 0.18,1.8 0.36,1.62 0.54,-0.9 0.18,-2.7 0.18,-3.78 0,-0.9 -0.18,-1.62 -0.72,-2.34 -0.54,-0.72 -1.08,-1.26 -1.62,-1.62 -0.9,-0.54 -2.16,-0.18 -3.06,0 -0.54,0 -0.18,4.5 0,4.5 l 0,0 z"
           style="fill:#800080;fill-rule:nonzero;stroke:none" />
        <path
           id="path70"
           d="m 256.555,32.579796 c 1.8,0.18 2.7,1.44 3.96,2.52 0.18,0 0.18,-0.72 0.18,-0.72 0,-0.54 0,-1.08 0,-1.62 0,-0.54 0,-1.08 0,-1.62 0,0 0,-0.54 -0.18,-0.54 -1.26,-1.08 -2.16,-2.34 -3.96,-2.52 -0.18,0 -0.36,4.5 0,4.5 l 0,0 z"
           style="fill:#800080;fill-rule:nonzero;stroke:none" />
        <path
           id="path72"
           d="m 261.955,37.259796 c 0,5.76 -4.68,9.54 -4.14,15.12 0.18,1.08 -0.18,2.7 0.18,0.18 -0.18,1.44 -0.36,3.06 -0.54,4.68 -0.18,2.7 -0.36,5.58 -0.18,8.28 0.36,2.7 0.54,-1.44 0.54,-2.34 -0.54,-4.86 0.9,-9.36 0.36,-14.4 0,1.44 -0.18,2.7 -0.18,4.14 3.06,-4.86 4.32,-9.9 4.32,-15.66 0,-2.52 -0.36,-2.52 -0.36,0 l 0,0 z"
           style="fill:#800080;fill-rule:nonzero;stroke:none" />
        <path
           id="path74"
           d="m 252.235,51.659796 c -0.72,-1.8 -2.7,-3.6 -4.68,-4.14 -0.18,0 -0.18,2.16 -0.18,2.34 0,0.18 -0.18,2.16 0.18,2.16 1.98,0.54 3.78,2.16 4.5,3.96 0.18,0.36 0.18,-0.18 0.18,-0.18 0,-0.36 0.18,-0.9 0.18,-1.44 0,-0.72 0,-1.8 -0.18,-2.7 l 0,0 z"
           style="fill:#800080;fill-rule:nonzero;stroke:none" />
        <path
           id="path76"
           d="m 257.995,65.159796 c 3.24,-0.72 9.54,-3.06 10.8,-6.48 0,-1.26 -0.18,-2.7 -0.18,-4.14 -0.9,5.4 -2.88,9.54 -0.54,14.94 1.62,3.78 3.24,7.92 5.22,11.52 1.08,1.8 2.34,3.42 3.06,5.22 1.26,2.7 -1.62,7.56 -2.7,9.9 -0.54,1.26 0.36,3.78 0.18,4.320004 2.16,-5.040004 4.86,-11.340004 3.24,-17.100004 -1.44,-4.5 -4.68,-8.28 -6.48,-12.6 -0.72,-1.98 -1.62,-3.78 -2.52,-5.76 -1.08,-2.34 0.36,-4.14 0.72,-6.48 0.18,-1.08 -0.36,-3.6 -0.18,-4.14 -1.26,3.24 -7.56,5.58 -10.62,6.3 -0.54,0.18 0,4.68 0,4.5 l 0,0 z"
           style="fill:#800080;fill-rule:nonzero;stroke:none" />
        <path
           id="path78"
           d="m 199.135,100.4398 c 1.08,-1.440004 4.32,-8.460004 5.76,-8.100004 1.26,0.18 2.7,1.62 3.6,2.16 2.34,1.44 5.04,2.52 7.56,3.42 4.14,1.44 8.1,2.880004 11.88,5.220004 3.78,2.52 7.56,5.94 10.62,9.18 0,-1.44 0,-3.06 0,-4.5 -3.42,0.18 -5.58,-2.34 -7.92,-4.32 -2.88,-2.34 -6.48,-3.780004 -9.9,-5.220004 -5.94,-2.52 -15.84,-9 -20.88,-2.52 -0.9,1.08 0.54,3.96 0,4.500004 4.86,-6.120004 13.68,-0.540004 19.26,1.8 3.6,1.62 7.2,3.06 10.44,5.22 3.06,1.8 5.04,5.22 9,5.04 0.36,0 0.36,-4.14 0,-4.5 -3.06,-3.24 -6.84,-6.48 -10.62,-9.180004 -3.96,-2.88 -8.82,-4.14 -13.5,-5.76 -3.42,-1.44 -6.66,-4.32 -10.08,-5.22 -0.54,-0.18 -4.68,7.56 -5.22,8.28 -0.72,1.08 0.36,3.96 0,4.500004 l 0,0 z"
           style="fill:#800080;fill-rule:nonzero;stroke:none" />
        <path
           id="path80"
           d="m 236.395,118.2598 c 5.76,-4.32 12.42,-8.28 19.08,-11.16 6.48,-3.06 14.58,-2.34 19.8,-7.740004 0.9,-0.9 -0.54,-3.96 0,-4.5 -4.86,5.04 -12.06,4.68 -18.18,7.020004 -3.96,1.44 -7.38,3.6 -10.98,5.94 -3.24,1.98 -6.66,3.6 -9.72,5.94 -0.9,0.72 0.36,4.14 0,4.5 l 0,0 z"
           style="fill:#800080;fill-rule:nonzero;stroke:none" />
        <path
           id="path82"
           d="m 272.935,92.159796 c -1.98,-2.34 -4.14,-4.5 -6.3,-6.84 -3.24,-3.24 -5.22,-6.84 -7.2,-10.98 -3.06,-6.48 -7.02,-12.96 -10.98,-18.9 0.18,0.54 -0.9,3.42 -0.18,4.5 4.5,6.3 8.46,13.32 11.7,20.16 3.24,6.66 8.28,10.98 12.96,16.56 -0.54,-0.72 0.72,-3.42 0,-4.5 l 0,0 z"
           style="fill:#800080;fill-rule:nonzero;stroke:none" />
        <path
           id="path84"
           d="m 288.235,107.0998 c -1.26,-2.34 -2.88,-4.5 -5.22,-6.12 -1.26,-0.9 -2.52,-1.800004 -3.96,-2.340004 -1.44,-0.54 -2.88,-0.72 -4.14,-1.8 0.36,0.54 -0.9,3.780004 0,4.500004 1.08,0.9 2.16,1.26 3.42,1.62 1.62,0.36 2.7,1.08 3.96,2.16 2.52,1.8 4.32,3.6 5.76,6.3 0.18,0.18 0.36,-1.44 0.36,-1.44 0,-0.72 0.18,-2.16 -0.18,-2.88 l 0,0 z"
           style="fill:#800080;fill-rule:nonzero;stroke:none" />
        <path
           id="path86"
           d="m 275.995,150.6598 c 5.58,-0.72 6.12,-4.86 5.94,-9.72 -0.18,-2.16 -0.18,-5.94 -1.62,-7.56 -3.06,-3.42 -7.74,-6.3 -8.28,-11.34 0,1.08 0,2.16 0,3.42 2.34,-9.36 14.04,-12.78 22.14,-10.08 4.14,1.44 7.92,4.5 11.7,6.66 2.88,1.8 7.38,4.68 9,7.74 -0.36,-0.54 0.54,-3.24 0,-4.32 -1.26,-2.7 -4.32,-4.5 -6.66,-6.12 -3.42,-2.52 -7.2,-4.86 -10.98,-7.02 -7.38,-4.14 -18.18,-2.7 -23.22,4.5 -2.88,3.78 -2.88,8.46 -1.08,12.96 1.44,2.88 4.32,5.22 6.66,7.2 4.32,4.14 0.9,8.64 -3.6,9.18 -0.54,0 -0.18,4.5 0,4.5 l 0,0 z"
           style="fill:#800080;fill-rule:nonzero;stroke:none" />
        <path
           id="path88"
           d="m 270.415,120.0598 c -3.42,4.5 -7.02,12.24 -3.96,17.82 0.18,0.36 0.36,-1.44 0.36,-1.44 0,-0.72 0.18,-2.16 -0.18,-2.88 -0.9,-1.62 -0.9,0.72 -0.36,-0.72 0.18,-0.9 0.54,-1.62 0.72,-2.34 0.54,-2.34 1.98,-4.14 3.42,-5.94 0.36,-0.54 0.18,-1.62 0.18,-2.16 0,-0.36 -0.36,-2.16 -0.18,-2.34 l 0,0 z"
           style="fill:#800080;fill-rule:nonzero;stroke:none" />
        <path
           id="path90"
           d="m 300.835,160.9198 c 6.12,-1.08 17.1,-4.86 17.82,-12.42 0.72,-6.48 -1.8,-10.98 -4.5,-16.74 0.18,0.54 -0.72,3.24 -0.18,4.32 1.08,2.16 2.16,4.32 3.24,6.48 1.62,3.6 -0.18,5.4 -2.7,7.74 -3.78,3.42 -8.82,5.22 -13.68,6.12 -0.54,0 0,4.5 0,4.5 l 0,0 z"
           style="fill:#800080;fill-rule:nonzero;stroke:none" />
        <path
           id="path92"
           d="m 177.895,138.7798 c 1.98,1.98 3.06,3.42 6.12,3.78 2.7,0.18 5.58,-0.36 8.46,0 5.4,0.54 8.1,-4.14 9.18,-8.82 0.72,-3.42 1.62,-7.02 1.26,-10.44 -0.36,-5.4 -3.6,-8.28 -6.3,-12.6 0.18,0.36 -0.9,3.24 -0.18,4.32 1.8,2.88 4.14,5.4 5.76,8.46 0.54,0.9 -0.54,5.22 -0.9,6.48 -0.54,2.7 -1.62,4.68 -3.6,6.66 -2.52,2.34 -6.48,1.26 -9.36,1.08 -1.98,-0.18 -3.78,0.36 -5.76,0.18 -1.98,-0.18 -3.42,-2.34 -4.68,-3.6 0.54,0.54 -0.9,3.78 0,4.5 l 0,0 z"
           style="fill:#800080;fill-rule:nonzero;stroke:none" />
        <path
           id="path94"
           d="m 200.575,110.6998 c 1.08,2.16 3.06,3.78 4.32,5.76 1.26,1.98 1.8,4.14 3.24,5.94 -0.18,0 0.18,-1.98 0.18,-2.16 0,-0.54 0.18,-1.8 -0.18,-2.34 -1.62,-1.98 -2.16,-4.32 -3.6,-6.3 -1.08,-1.8 -2.88,-3.24 -3.96,-5.22 0,-0.18 -0.18,1.44 -0.18,1.62 0,0.72 -0.36,2.16 0.18,2.7 l 0,0 z"
           style="fill:#800080;fill-rule:nonzero;stroke:none" />
        <path
           id="path96"
           d="m 198.955,106.3798 c 2.88,1.26 6.12,1.8 8.82,3.6 3.78,2.16 5.76,7.2 7.92,10.62 -0.18,-0.36 0.9,-3.24 0.18,-4.32 -2.16,-3.24 -3.96,-6.66 -6.66,-9.72 -2.34,-2.7 -7.02,-3.24 -10.26,-4.68 0.18,0.18 -0.72,4.14 0,4.5 l 0,0 z"
           style="fill:#800080;fill-rule:nonzero;stroke:none" />
        <path
           id="path98"
           d="m 157.555,126.8998 c -0.36,-3.06 0.36,-5.4 1.98,-8.1 0.36,-0.72 0.18,-1.98 0.18,-2.7 0,-0.18 -0.18,-1.8 -0.36,-1.62 -2.88,5.22 -2.88,10.44 -1.98,16.38 0,0.72 0.18,-0.72 0.18,-0.9 0.18,-1.08 0.18,-1.98 0,-3.06 l 0,0 z"
           style="fill:#800080;fill-rule:nonzero;stroke:none" />
        <path
           id="path100"
           d="m 170.335,134.0998 c -3.96,-0.9 -7.74,-3.06 -10.62,-5.94 0,0 -0.36,1.98 -0.36,2.16 0,0.54 -0.18,1.98 0.36,2.34 2.88,2.88 6.66,5.04 10.62,5.94 0,0 0.54,-4.32 0,-4.5 l 0,0 z"
           style="fill:#800080;fill-rule:nonzero;stroke:none" />
        <path
           id="path102"
           d="m 206.695,109.9798 c 5.76,0.18 11.7,2.88 16.92,5.04 4.5,1.8 9.18,2.52 13.68,4.32 4.32,1.62 5.94,7.02 9,10.26 4.14,4.14 10.26,7.02 15.48,9.36 -0.36,0 0.72,-3.96 0,-4.5 -4.86,-2.34 -9.9,-4.86 -14.22,-8.28 -3.96,-3.06 -5.04,-8.28 -9.18,-10.8 -3.78,-2.52 -9,-2.7 -13.14,-4.32 -5.94,-1.98 -12.06,-5.4 -18.54,-5.58 -0.18,0 -0.36,4.5 0,4.5 l 0,0 z"
           style="fill:#800080;fill-rule:nonzero;stroke:none" />
        <path
           id="path104"
           d="m 217.495,155.3398 c 3.96,-3.06 6.84,-6.12 8.1,-10.98 1.44,-5.4 4.86,-7.02 9.9,-7.74 0.54,-0.18 0.18,-4.5 0,-4.5 -4.14,0.54 -7.92,1.8 -9.54,5.94 -0.72,2.34 -1.08,4.68 -2.34,6.66 -1.62,2.52 -3.78,4.32 -6.12,6.12 -0.9,0.72 0.54,4.14 0,4.5 l 0,0 z"
           style="fill:#800080;fill-rule:nonzero;stroke:none" />
        <path
           id="path106"
           d="m 220.375,153.8998 c 2.88,-1.62 5.22,-4.14 8.1,-5.76 3.06,-1.62 6.3,-3.24 9.72,-3.96 0.54,-0.18 0.18,-4.5 0,-4.5 -3.42,0.72 -6.48,2.52 -9.72,3.96 -3.06,1.44 -5.22,4.14 -8.1,5.76 -0.9,0.54 0.36,4.32 0,4.5 l 0,0 z"
           style="fill:#800080;fill-rule:nonzero;stroke:none" />
        <path
           id="path108"
           d="m 205.615,149.9398 c 4.14,-4.14 4.32,-10.26 5.76,-15.84 0.36,-1.26 -0.36,-3.42 0,-4.32 -1.44,5.4 -1.8,11.52 -5.76,15.66 -0.9,0.9 0.54,3.96 0,4.5 l 0,0 z"
           style="fill:#800080;fill-rule:nonzero;stroke:none" />
        <path
           id="path110"
           d="m 211.195,147.2398 c 2.88,-2.7 5.58,-5.94 7.38,-9.72 0.18,-0.72 0.18,-1.98 0,-2.7 0,-0.18 -0.18,-1.8 -0.18,-1.62 -1.62,3.6 -4.32,6.84 -7.2,9.54 -0.54,0.36 -0.36,1.8 -0.36,2.16 0,0.18 0.36,2.34 0.36,2.34 l 0,0 z"
           style="fill:#800080;fill-rule:nonzero;stroke:none" />
        <path
           id="path112"
           d="m 273.295,132.6598 c -3.06,1.62 -6.12,3.42 -9.18,5.04 -3.06,1.62 -5.76,4.14 -9,4.86 -1.44,0.36 -2.52,0.18 -3.78,0.72 -1.26,0.54 -2.34,1.08 -3.6,1.44 -1.62,0.54 -4.14,-0.72 -5.94,-0.54 -1.08,0 -0.9,3.24 -0.72,3.78 0.54,1.08 1.8,1.62 3.06,1.62 3.24,0.36 5.04,2.52 8.28,0.18 0.54,-0.36 -0.36,-2.7 0,-2.88 -3.24,2.16 -6.3,0.36 -9.54,-0.54 -0.9,-0.54 -1.08,-0.36 -1.08,0.72 0.54,0 1.08,0 1.62,0.18 1.44,0 2.88,0.54 4.32,0.54 1.62,0 3.42,-1.44 4.68,-1.98 0.9,0 1.8,-0.18 2.7,-0.18 1.44,-0.18 2.52,-1.08 3.78,-1.8 4.68,-2.88 9.54,-5.58 14.4,-8.1 0.54,-0.36 -0.18,-2.88 0,-3.06 l 0,0 z"
           style="fill:#800080;fill-rule:nonzero;stroke:none" />
        <path
           id="path114"
           d="m 254.035,146.1598 c -1.62,2.16 -3.24,4.32 -5.04,6.3 -0.9,0.9 -1.8,1.8 -2.7,2.52 -0.9,0.9 -1.62,1.98 -2.52,2.88 -0.54,0.36 -0.36,1.8 -0.36,2.16 0,0.18 0.36,2.34 0.36,2.34 1.62,-1.44 3.06,-3.24 4.68,-4.86 1.98,-1.98 3.78,-4.5 5.58,-6.84 0.36,-0.54 0.18,-1.62 0.18,-2.16 0,-0.36 -0.18,-2.16 -0.18,-2.34 l 0,0 z"
           style="fill:#800080;fill-rule:nonzero;stroke:none" />
        <path
           id="path116"
           d="m 252.055,153.5398 c -2.88,3.96 -5.22,4.86 -9.9,5.58 -1.8,0.18 -5.4,-0.54 -5.76,1.98 -0.72,3.78 -0.36,5.76 3.6,6.66 2.34,0.54 4.5,1.08 6.84,0.54 4.14,-1.08 7.92,-4.68 10.44,-7.74 2.52,-3.06 4.86,-5.58 8.46,-7.2 3.24,-1.44 8.1,-1.08 11.7,-1.62 0.54,0 0,-4.5 0,-4.5 -3.96,0.72 -7.92,0.72 -11.7,1.62 -3.96,1.08 -7.02,5.4 -9.54,8.46 -2.7,3.24 -7.2,6.48 -11.7,6.84 -1.8,0 -7.02,-0.9 -7.92,-2.7 0,1.26 0,2.34 0,3.42 0.18,-1.62 8.64,-1.8 9.54,-1.8 2.7,-0.36 4.5,-3.24 5.94,-5.22 0.72,-1.08 -0.36,-3.96 0,-4.32 l 0,0 z"
           style="fill:#800080;fill-rule:nonzero;stroke:none" />
        <path
           id="path118"
           d="m 281.035,151.5598 c 5.94,-0.72 19.08,0.36 21.96,-6.66 0.54,-1.08 -0.36,-3.6 0,-4.32 -2.88,6.84 -16.2,5.76 -21.96,6.48 -0.54,0.18 -0.18,4.68 0,4.5 l 0,0 z"
           style="fill:#800080;fill-rule:nonzero;stroke:none" />
        <path
           id="path120"
           d="m 281.035,153.8998 c 6.48,0.72 11.88,5.22 18.36,6.12 3.42,0.54 6.66,1.98 9.9,3.24 1.98,0.72 6.84,1.26 7.38,3.6 0,-1.44 0,-2.88 0,-4.32 -1.98,3.24 -4.68,1.98 -7.56,1.08 0.18,0 -0.72,4.14 0,4.5 2.7,0.9 7.56,2.16 7.74,-2.16 0.18,-3.06 0.18,-4.68 -3.06,-5.76 -5.22,-1.62 -10.26,-3.96 -15.84,-4.86 -6.12,-0.9 -10.8,-5.22 -16.92,-5.94 -0.18,0 -0.54,4.5 0,4.5 l 0,0 z"
           style="fill:#800080;fill-rule:nonzero;stroke:none" />
        <path
           id="path122"
           d="m 298.675,164.1598 c 1.98,1.26 4.32,1.62 6.3,2.52 2.16,1.08 -0.72,-0.54 -1.26,-0.72 -1.44,-0.72 -2.7,-1.8 -4.14,-2.52 -3.24,-1.98 -6.48,1.8 -9.72,-0.54 -2.88,-1.98 -4.32,-5.58 -8.28,-3.96 -0.72,0.36 0.36,4.5 0,4.5 2.7,-1.08 4.5,0.36 6.48,2.16 2.34,2.16 3.42,3.24 6.66,2.34 2.88,-0.9 4.5,-0.36 7.02,1.26 0.54,0.18 3.78,3.06 4.32,1.8 0.9,-1.98 1.08,-4.68 0.72,-6.84 -0.54,-2.88 -6.12,-3.24 -8.1,-4.5 0.36,0.18 -0.9,3.96 0,4.5 l 0,0 z"
           style="fill:#800080;fill-rule:nonzero;stroke:none" />
        <path
           id="path124"
           d="m 261.415,160.5598 c 1.98,0.72 4.14,1.8 5.94,3.06 3.96,2.88 2.7,7.02 0,10.08 -1.98,2.16 -3.78,4.32 -6.48,5.76 -3.24,1.62 -7.56,0.54 -10.98,0.54 -8.1,0.18 -14.4,-0.9 -21.78,-4.68 -2.88,-1.44 -5.76,-2.88 -9.18,-3.42 -3.6,-0.9 -7.38,0 -10.98,-0.9 0,0 -0.54,4.32 0,4.5 4.14,0.9 8.46,0.18 12.6,1.08 4.86,1.08 9.18,4.32 13.68,6.12 4.5,1.8 9.18,1.98 13.86,1.8 4.86,0 9.72,0.9 14.22,-1.26 4.5,-2.34 9,-8.64 8.82,-13.86 -0.18,-6.66 -3.42,-11.16 -9.72,-13.32 0,0.18 -0.72,4.32 0,4.5 l 0,0 z"
           style="fill:#800080;fill-rule:nonzero;stroke:none" />
        <path
           id="path126"
           d="m 208.495,152.2798 c 4.68,2.88 10.26,4.68 15.66,5.4 5.94,0.72 12.06,-1.26 18,0.54 -0.18,0 0.72,-4.32 0,-4.5 -5.22,-1.62 -10.98,-0.36 -16.38,-0.54 -5.94,-0.18 -12.24,-2.34 -17.28,-5.4 0.36,0.18 -0.9,3.96 0,4.5 l 0,0 z"
           style="fill:#800080;fill-rule:nonzero;stroke:none" />
        <path
           id="path128"
           d="m 202.735,173.1598 c 3.42,-3.06 4.68,-8.46 5.4,-12.96 0.72,-3.42 0.9,-8.1 -1.08,-11.16 0.36,0.36 -0.72,3.24 -0.18,4.32 2.52,3.96 -0.9,12.42 -4.14,15.3 -0.9,0.9 0.54,4.14 0,4.5 l 0,0 z"
           style="fill:#800080;fill-rule:nonzero;stroke:none" />
        <path
           id="path130"
           d="m 201.835,164.5198 c -1.98,-0.9 -3.42,-2.7 -5.22,-3.78 -2.52,-1.8 -5.76,-2.34 -8.46,-3.42 -2.34,-0.9 -4.86,-1.8 -6.66,-3.6 1.26,1.26 -2.7,-3.42 -2.52,-3.24 -1.08,-0.72 -2.52,-0.9 -2.88,-2.34 0,1.44 0,3.06 0,4.5 0.36,-0.54 0.72,-1.08 1.08,-1.44 0.36,-0.54 0.54,-4.14 0,-4.5 -1.44,-0.9 -2.7,-0.36 -3.42,-1.98 0,1.44 0,2.88 0,4.32 0.36,-0.36 0.72,-0.72 0.9,-1.26 0.9,-0.54 -0.36,-4.14 0,-4.5 -1.44,1.08 -1.26,2.52 -1.26,4.14 0.18,3.06 1.62,2.52 3.78,3.78 0,-1.62 0,-3.06 0,-4.5 -1.26,1.26 -1.44,2.52 -1.26,4.32 0,3.24 1.98,2.34 3.78,4.86 2.52,3.78 5.94,5.04 10.08,6.48 2.34,0.9 4.68,1.62 6.84,2.88 1.98,1.08 3.06,2.88 5.22,3.78 -0.18,-0.18 0.72,-4.14 0,-4.5 l 0,0 z"
           style="fill:#800080;fill-rule:nonzero;stroke:none" />
        <path
           id="path132"
           d="m 205.975,151.3798 c -3.96,-0.18 -8.82,-1.26 -12.06,-3.78 -1.8,-1.26 -2.16,-3.78 -3.42,-5.4 -1.26,-1.62 -3.78,-1.62 -5.58,-2.16 0.18,0 -0.72,4.14 0,4.5 1.62,0.54 3.42,0.72 4.86,1.44 1.8,0.9 2.16,3.96 3.42,5.4 2.88,3.24 8.64,4.32 12.78,4.5 0.36,0 0.36,-4.5 0,-4.5 l 0,0 z"
           style="fill:#800080;fill-rule:nonzero;stroke:none" />
        <path
           id="path134"
           d="m 177.355,138.4198 c -0.9,-0.36 -1.98,0.18 -2.52,0.72 -0.18,0.54 -0.36,0.9 -0.36,1.44 -0.18,1.08 -0.18,2.34 0,3.42 0.18,1.26 0.72,1.44 1.8,1.44 0.9,0.18 1.98,0.18 2.88,0.54 0,0 0.18,-2.16 0.18,-2.34 0,-0.18 0.18,-1.98 -0.18,-2.16 -1.26,-0.54 -2.7,-0.18 -3.96,-0.72 -0.18,0 -0.18,0 -0.36,-0.18 0,0 0,0 0,0 -0.72,-1.08 -0.9,0 0,3.42 0,-0.36 0.36,-0.54 0.54,-0.72 0.54,-0.54 1.44,-0.72 1.98,-0.36 0.18,0 0.18,-2.16 0.18,-2.34 0,-0.18 0.18,-2.16 -0.18,-2.16 l 0,0 z"
           style="fill:#800080;fill-rule:nonzero;stroke:none" />
        <path
           id="path136"
           d="m 188.695,163.0798 c -1.98,2.34 -1.62,5.76 -1.08,8.64 0.54,4.32 1.8,7.2 5.04,10.26 -0.54,-0.54 0.9,-3.78 0,-4.5 -1.44,-1.44 -2.88,-2.7 -3.78,-4.5 -0.36,-0.9 -0.36,-2.16 -0.54,-3.06 -0.36,-0.72 -0.36,-1.44 -0.54,-2.16 -0.18,1.44 0.18,1.44 0.9,-0.18 0.36,-0.54 0.18,-1.8 0.18,-2.34 0,-0.18 -0.18,-2.16 -0.18,-2.16 l 0,0 z"
           style="fill:#800080;fill-rule:nonzero;stroke:none" />
        <path
           id="path138"
           d="m 164.755,156.7798 c 1.98,1.62 3.96,3.06 5.76,4.86 2.88,2.88 2.7,6.3 3.42,10.26 0.9,4.32 3.6,8.28 7.2,10.8 -0.36,-0.18 0.9,-3.78 0,-4.5 -5.04,-3.6 -6.48,-8.1 -7.2,-14.04 -0.72,-5.4 -5.22,-8.82 -9.18,-11.88 0.36,0.36 -0.9,3.96 0,4.5 l 0,0 z"
           style="fill:#800080;fill-rule:nonzero;stroke:none" />
        <path
           id="path140"
           d="m 154.855,154.7998 c 3.06,1.62 6.48,2.34 9.36,3.78 4.14,2.16 4.32,7.2 6.12,10.98 -0.18,-0.54 0.72,-3.24 0.18,-4.32 -1.62,-3.42 -1.8,-7.74 -4.86,-10.26 -3.06,-2.52 -7.38,-2.88 -10.8,-4.68 0.18,0.18 -0.9,4.14 0,4.5 l 0,0 z"
           style="fill:#800080;fill-rule:nonzero;stroke:none" />
        <path
           id="path142"
           d="m 152.335,163.9798 c -2.16,2.7 -4.86,3.6 -8.28,3.06 -2.7,-0.36 -5.58,-1.98 -8.28,-1.08 -0.72,0.18 0,4.32 0,4.5 2.52,-0.9 5.58,0.54 8.28,1.08 3.42,0.72 6.12,-0.54 8.28,-3.06 0.9,-1.08 -0.54,-3.78 0,-4.5 l 0,0 z"
           style="fill:#800080;fill-rule:nonzero;stroke:none" />
        <path
           id="path144"
           d="m 146.215,160.7398 c -7.74,-1.44 -14.94,-1.26 -21.24,4.14 -3.06,2.7 -2.7,8.28 -2.16,11.88 0.36,3.06 1.08,6.12 2.34,9 1.26,2.88 5.94,1.26 8.1,0.9 3.96,-0.54 7.56,1.44 11.16,2.52 4.5,1.44 9.54,-0.36 13.86,-1.62 0.72,-0.18 -0.18,-4.5 0,-4.5 -5.76,1.8 -10.8,2.7 -16.56,0.72 -2.88,-0.9 -5.4,-1.8 -8.46,-1.62 -2.7,0.18 -6.12,1.98 -8.1,-0.72 -1.08,-1.62 -1.62,-5.22 -1.98,-7.02 -0.9,-4.14 3.42,-6.48 6.3,-7.92 5.58,-2.7 10.98,-2.34 16.74,-1.26 0.18,0 0.72,-4.32 0,-4.5 l 0,0 z"
           style="fill:#800080;fill-rule:nonzero;stroke:none" />
        <path
           id="path146"
           d="m 128.215,163.7998 c 2.34,-3.96 5.76,-6.84 8.1,-10.8 2.7,-4.5 3.6,-10.08 5.76,-14.94 1.98,-4.68 5.76,-8.28 7.92,-12.96 1.08,-1.98 1.44,-4.5 3.6,-5.94 1.44,-0.9 2.88,-1.62 4.32,-2.7 0.9,-0.54 -0.36,-4.14 0,-4.5 -2.88,2.16 -5.4,2.7 -6.84,6.12 -2.34,5.22 -5.58,9.36 -8.46,14.04 -2.88,4.68 -3.6,10.26 -5.76,15.3 -1.98,4.5 -6.12,7.74 -8.82,11.88 -0.54,1.08 0.54,3.96 0.18,4.5 l 0,0 z"
           style="fill:#800080;fill-rule:nonzero;stroke:none" />
        <path
           id="path148"
           d="m 129.475,189.1798 c 0,0.54 -1.62,3.6 -1.8,4.5 -0.72,2.34 -0.72,5.04 -1.62,7.38 -1.62,3.78 -2.16,7.56 -2.34,11.7 0,1.44 0.36,4.32 0.36,1.08 0.18,-4.5 2.34,-7.38 3.06,-11.52 0.54,-2.7 0.9,-5.4 1.8,-8.1 1.08,-2.88 1.08,-5.76 0.72,-8.82 -0.18,-0.9 -0.36,0.72 -0.36,0.72 0,1.08 0,2.16 0.18,3.06 l 0,0 z"
           style="fill:#800080;fill-rule:nonzero;stroke:none" />
        <path
           id="path150"
           d="m 146.215,189.1798 c -1.98,5.04 -3.24,10.26 -5.22,15.12 -1.8,4.86 -5.4,8.28 -7.2,13.14 -0.36,1.26 0.36,3.78 0.18,4.32 1.8,-4.68 5.04,-8.46 7.2,-13.14 2.16,-4.86 3.06,-10.08 5.04,-15.12 0.54,-1.26 -0.36,-3.6 0,-4.32 l 0,0 z"
           style="fill:#800080;fill-rule:nonzero;stroke:none" />
        <path
           id="path152"
           d="m 304.615,174.5998 c 3.06,1.8 4.68,4.68 6.3,7.74 1.44,2.7 -1.98,7.92 -3.06,10.8 -1.8,4.68 -6.12,15.48 -12.6,14.22 0,0 -0.54,4.5 0,4.5 4.14,0.9 6.66,-3.24 8.46,-6.3 3.42,-5.4 5.94,-11.52 7.92,-17.46 2.16,-6.48 -1.44,-14.58 -7.02,-18 0.36,0.36 -0.9,3.96 0,4.5 l 0,0 z"
           style="fill:#800080;fill-rule:nonzero;stroke:none" />
        <path
           id="path154"
           d="m 294.715,204.4798 c -1.44,1.98 -3.96,0.9 -5.94,0.36 -3.6,-0.72 -7.38,-1.26 -10.26,-3.24 0.18,0.18 -0.72,2.52 0,3.06 2.7,1.8 6.12,2.16 9.18,2.88 2.16,0.54 5.4,1.98 7.02,0 0.54,-0.72 -0.36,-2.52 0,-3.06 l 0,0 z"
           style="fill:#800080;fill-rule:nonzero;stroke:none" />
        <path
           id="path156"
           d="m 282.655,198.7198 c -3.06,-1.62 -7.02,-2.88 -8.64,-6.3 -0.18,-0.18 -0.18,0.9 -0.18,1.08 0,0.54 -0.18,1.26 0,1.8 1.62,3.42 5.76,4.86 8.82,6.3 -0.18,0 0.54,-2.7 0,-2.88 l 0,0 z"
           style="fill:#800080;fill-rule:nonzero;stroke:none" />
        <path
           id="path158"
           d="m 276.535,194.2198 c 1.26,-1.8 1.26,-3.6 2.88,-5.4 0.54,-0.72 0.54,-1.8 0.54,-2.7 0.18,-2.52 -1.44,-4.14 -1.62,-6.66 0,-0.54 -0.18,-1.26 -0.18,-1.8 0.36,1.8 0.36,0.36 1.62,-0.18 1.62,-0.9 3.78,-0.72 5.58,-1.08 1.98,-0.18 3.6,-1.44 5.4,-2.34 2.34,-1.26 4.86,-1.44 7.56,-1.08 0.18,0 0.54,-4.5 0,-4.5 -5.04,-0.72 -7.74,2.16 -12.24,3.24 -2.52,0.72 -6.3,0 -8.1,2.52 -2.16,3.6 0.54,10.26 1.8,13.5 0,-1.44 0,-2.88 0,-4.32 -1.08,2.16 -0.9,1.08 -1.98,2.52 -0.9,1.26 -0.36,2.7 -1.44,3.96 -0.54,1.08 0.54,3.96 0.18,4.32 l 0,0 z"
           style="fill:#800080;fill-rule:nonzero;stroke:none" />
        <path
           id="path160"
           d="m 261.055,184.3198 c 3.96,1.62 10.98,-1.08 13.5,-4.14 0.36,-0.54 0.18,-1.8 0.18,-2.34 0,-0.18 -0.18,-2.16 -0.18,-2.16 -2.52,3.06 -9.54,5.76 -13.5,4.14 0.18,0 -0.72,4.14 0,4.5 l 0,0 z"
           style="fill:#800080;fill-rule:nonzero;stroke:none" />
      </g>
      <text
         xml:space="preserve"
         style="font-size:46px;font-style:normal;font-variant:normal;font-weight:bold;font-stretch:normal;text-align:center;line-height:125%;writing-mode:lr-tb;text-anchor:middle;fill:#800080;fill-opacity:1;stroke:none;font-family:LMSansQuotation8"
         x="733.40894"
         y="912.65582"
         id="text2236"
         sodipodi:linespacing="125%"><tspan
           sodipodi:role="line"
           x="733.40894"
           y="912.65582"
           style="font-size:46px;font-style:normal;font-variant:normal;font-weight:bold;font-stretch:normal;text-align:center;line-height:125%;writing-mode:lr-tb;text-anchor:middle;fill:#800080;fill-opacity:1;font-family:Latin Modern Sans Quotation;-inkscape-font-specification:Latin Modern Sans Quotation"
           id="tspan2248">Sanshinkai Aikido</tspan><tspan
           sodipodi:role="line"
           x="733.40894"
           y="970.15582"
           style="font-size:46px;font-style:normal;font-variant:normal;font-weight:bold;font-stretch:normal;text-align:center;line-height:125%;writing-mode:lr-tb;text-anchor:middle;fill:#800080;fill-opacity:1;font-family:Latin Modern Sans Quotation;-inkscape-font-specification:Latin Modern Sans Quotation"
           id="tspan2246">Utrecht</tspan></text>
    </g>
    <g
       transform="matrix(1.4111109,0,0,1.4111109,32.387146,-455.52592)"
       id="g5550">
      <rect
         ry="15"
         rx="15"
         style="fill:#217844;fill-opacity:1;stroke:none"
         id="rect5354"
         width="425.19684"
         height="425.1969"
         x="137.33435"
         y="592.32825" />
      <rect
         style="fill:#217844;fill-opacity:1;stroke:#ffffff;stroke-width:5.33636999;stroke-miterlimit:4;stroke-opacity:1;stroke-dasharray:none;stroke-dashoffset:0"
         id="rect5356"
         width="398.60062"
         height="398.60065"
         x="150.63246"
         y="605.62634"
         rx="14.999998"
         ry="15.000002" />
      <path
         id="path5358"
         d="m 310.70118,682.97899 0,82.26902 -81.34204,0 0,79.35737 81.34204,0 0,82.26902 78.46319,0 0,-82.26902 81.34203,0 0,-79.35737 -81.34203,0 0,-82.26902 -78.46319,0 z"
         style="fill:#ffffff;fill-opacity:1;stroke:none"
         inkscape:connector-curvature="0" />
    </g>
  </g>
</svg>
